<mxfile host="Electron" modified="2023-10-05T17:59:43.942Z" agent="Mozilla/5.0 (X11; Linux x86_64) AppleWebKit/537.36 (KHTML, like Gecko) draw.io/22.0.2 Chrome/114.0.5735.289 Electron/25.8.4 Safari/537.36" etag="LqE7wSjHuZ1TcwtwKq8_" version="22.0.2" type="device">
  <diagram id="C5RBs43oDa-KdzZeNtuy" name="Page-1">
    <mxGraphModel dx="1366" dy="1967" grid="1" gridSize="10" guides="1" tooltips="1" connect="1" arrows="1" fold="1" page="1" pageScale="1" pageWidth="827" pageHeight="1169" math="0" shadow="0">
      <root>
        <mxCell id="WIyWlLk6GJQsqaUBKTNV-0" />
        <mxCell id="WIyWlLk6GJQsqaUBKTNV-1" parent="WIyWlLk6GJQsqaUBKTNV-0" />
        <mxCell id="W-wC5RP210m4lfcZ7cC2-63" style="edgeStyle=orthogonalEdgeStyle;rounded=0;orthogonalLoop=1;jettySize=auto;html=1;exitX=0.5;exitY=1;exitDx=0;exitDy=0;entryX=0.5;entryY=0;entryDx=0;entryDy=0;strokeColor=#DDA15E;fontColor=#FEFAE0;fillColor=#BC6C25;" edge="1" parent="WIyWlLk6GJQsqaUBKTNV-1" source="zkfFHV4jXpPFQw0GAbJ--0" target="zkfFHV4jXpPFQw0GAbJ--6">
          <mxGeometry relative="1" as="geometry" />
        </mxCell>
        <mxCell id="W-wC5RP210m4lfcZ7cC2-64" style="edgeStyle=orthogonalEdgeStyle;rounded=0;orthogonalLoop=1;jettySize=auto;html=1;exitX=0.5;exitY=1;exitDx=0;exitDy=0;entryX=0.5;entryY=0;entryDx=0;entryDy=0;strokeColor=#DDA15E;fontColor=#FEFAE0;fillColor=#BC6C25;" edge="1" parent="WIyWlLk6GJQsqaUBKTNV-1" source="zkfFHV4jXpPFQw0GAbJ--0" target="zkfFHV4jXpPFQw0GAbJ--13">
          <mxGeometry relative="1" as="geometry" />
        </mxCell>
        <mxCell id="W-wC5RP210m4lfcZ7cC2-65" style="edgeStyle=orthogonalEdgeStyle;rounded=0;orthogonalLoop=1;jettySize=auto;html=1;exitX=0.5;exitY=1;exitDx=0;exitDy=0;entryX=0.5;entryY=0;entryDx=0;entryDy=0;strokeColor=#DDA15E;fontColor=#FEFAE0;fillColor=#BC6C25;" edge="1" parent="WIyWlLk6GJQsqaUBKTNV-1" source="zkfFHV4jXpPFQw0GAbJ--0" target="W-wC5RP210m4lfcZ7cC2-6">
          <mxGeometry relative="1" as="geometry" />
        </mxCell>
        <mxCell id="W-wC5RP210m4lfcZ7cC2-66" style="edgeStyle=orthogonalEdgeStyle;rounded=0;orthogonalLoop=1;jettySize=auto;html=1;exitX=0.5;exitY=1;exitDx=0;exitDy=0;strokeColor=#DDA15E;fontColor=#FEFAE0;fillColor=#BC6C25;" edge="1" parent="WIyWlLk6GJQsqaUBKTNV-1" source="zkfFHV4jXpPFQw0GAbJ--0" target="W-wC5RP210m4lfcZ7cC2-9">
          <mxGeometry relative="1" as="geometry" />
        </mxCell>
        <mxCell id="zkfFHV4jXpPFQw0GAbJ--0" value="Parent Class:&#xa;managedDevice" style="swimlane;fontStyle=2;align=center;verticalAlign=top;childLayout=stackLayout;horizontal=1;startSize=40;horizontalStack=0;resizeParent=1;resizeLast=0;collapsible=1;marginBottom=0;rounded=0;shadow=0;strokeWidth=1;labelBackgroundColor=none;fillColor=#BC6C25;strokeColor=#DDA15E;fontColor=#FEFAE0;" parent="WIyWlLk6GJQsqaUBKTNV-1" vertex="1">
          <mxGeometry x="320" y="40" width="160" height="360" as="geometry">
            <mxRectangle x="230" y="140" width="160" height="26" as="alternateBounds" />
          </mxGeometry>
        </mxCell>
        <mxCell id="zkfFHV4jXpPFQw0GAbJ--3" value="States [Attributes]" style="text;align=left;verticalAlign=top;spacingLeft=4;spacingRight=4;overflow=hidden;rotatable=0;points=[[0,0.5],[1,0.5]];portConstraint=eastwest;rounded=0;shadow=0;html=0;labelBackgroundColor=none;fillColor=#8F7256;strokeColor=#36393d;" parent="zkfFHV4jXpPFQw0GAbJ--0" vertex="1">
          <mxGeometry y="40" width="160" height="26" as="geometry" />
        </mxCell>
        <mxCell id="W-wC5RP210m4lfcZ7cC2-26" value="Hostname" style="text;align=left;verticalAlign=top;spacingLeft=4;spacingRight=4;overflow=hidden;rotatable=0;points=[[0,0.5],[1,0.5]];portConstraint=eastwest;rounded=0;shadow=0;html=0;labelBackgroundColor=none;fontColor=#FEFAE0;fontSize=10;" vertex="1" parent="zkfFHV4jXpPFQw0GAbJ--0">
          <mxGeometry y="66" width="160" height="24" as="geometry" />
        </mxCell>
        <mxCell id="W-wC5RP210m4lfcZ7cC2-27" value="Management_IP" style="text;align=left;verticalAlign=top;spacingLeft=4;spacingRight=4;overflow=hidden;rotatable=0;points=[[0,0.5],[1,0.5]];portConstraint=eastwest;rounded=0;shadow=0;html=0;labelBackgroundColor=none;fontColor=#FEFAE0;fontSize=10;" vertex="1" parent="zkfFHV4jXpPFQw0GAbJ--0">
          <mxGeometry y="90" width="160" height="24" as="geometry" />
        </mxCell>
        <mxCell id="W-wC5RP210m4lfcZ7cC2-30" value="Device_Type" style="text;align=left;verticalAlign=top;spacingLeft=4;spacingRight=4;overflow=hidden;rotatable=0;points=[[0,0.5],[1,0.5]];portConstraint=eastwest;rounded=0;shadow=0;html=0;labelBackgroundColor=none;fontColor=#FEFAE0;fontSize=10;" vertex="1" parent="zkfFHV4jXpPFQw0GAbJ--0">
          <mxGeometry y="114" width="160" height="24" as="geometry" />
        </mxCell>
        <mxCell id="W-wC5RP210m4lfcZ7cC2-31" value="Device_Model" style="text;align=left;verticalAlign=top;spacingLeft=4;spacingRight=4;overflow=hidden;rotatable=0;points=[[0,0.5],[1,0.5]];portConstraint=eastwest;rounded=0;shadow=0;html=0;labelBackgroundColor=none;fontColor=#FEFAE0;fontSize=10;" vertex="1" parent="zkfFHV4jXpPFQw0GAbJ--0">
          <mxGeometry y="138" width="160" height="24" as="geometry" />
        </mxCell>
        <mxCell id="zkfFHV4jXpPFQw0GAbJ--2" value="Vendor" style="text;align=left;verticalAlign=top;spacingLeft=4;spacingRight=4;overflow=hidden;rotatable=0;points=[[0,0.5],[1,0.5]];portConstraint=eastwest;rounded=0;shadow=0;html=0;labelBackgroundColor=none;fontColor=#FEFAE0;fontSize=10;" parent="zkfFHV4jXpPFQw0GAbJ--0" vertex="1">
          <mxGeometry y="162" width="160" height="24" as="geometry" />
        </mxCell>
        <mxCell id="W-wC5RP210m4lfcZ7cC2-40" value="Username   " style="text;align=left;verticalAlign=top;spacingLeft=4;spacingRight=4;overflow=hidden;rotatable=0;points=[[0,0.5],[1,0.5]];portConstraint=eastwest;rounded=0;shadow=0;html=0;labelBackgroundColor=none;fontColor=#FEFAE0;fontSize=10;" vertex="1" parent="zkfFHV4jXpPFQw0GAbJ--0">
          <mxGeometry y="186" width="160" height="24" as="geometry" />
        </mxCell>
        <mxCell id="W-wC5RP210m4lfcZ7cC2-47" value="Password" style="text;align=left;verticalAlign=top;spacingLeft=4;spacingRight=4;overflow=hidden;rotatable=0;points=[[0,0.5],[1,0.5]];portConstraint=eastwest;rounded=0;shadow=0;html=0;labelBackgroundColor=none;fontColor=#FEFAE0;fontSize=10;" vertex="1" parent="zkfFHV4jXpPFQw0GAbJ--0">
          <mxGeometry y="210" width="160" height="24" as="geometry" />
        </mxCell>
        <mxCell id="W-wC5RP210m4lfcZ7cC2-48" value="SSH-key" style="text;align=left;verticalAlign=top;spacingLeft=4;spacingRight=4;overflow=hidden;rotatable=0;points=[[0,0.5],[1,0.5]];portConstraint=eastwest;rounded=0;shadow=0;html=0;labelBackgroundColor=none;fontColor=#FEFAE0;fontSize=10;" vertex="1" parent="zkfFHV4jXpPFQw0GAbJ--0">
          <mxGeometry y="234" width="160" height="24" as="geometry" />
        </mxCell>
        <mxCell id="W-wC5RP210m4lfcZ7cC2-15" value="Behaviors [Methods]" style="text;align=left;verticalAlign=top;spacingLeft=4;spacingRight=4;overflow=hidden;rotatable=0;points=[[0,0.5],[1,0.5]];portConstraint=eastwest;rounded=0;shadow=0;html=0;labelBackgroundColor=none;fillColor=#8F7256;strokeColor=#36393d;" vertex="1" parent="zkfFHV4jXpPFQw0GAbJ--0">
          <mxGeometry y="258" width="160" height="26" as="geometry" />
        </mxCell>
        <mxCell id="zkfFHV4jXpPFQw0GAbJ--1" value="__init__" style="text;align=left;verticalAlign=top;spacingLeft=4;spacingRight=4;overflow=hidden;rotatable=0;points=[[0,0.5],[1,0.5]];portConstraint=eastwest;labelBackgroundColor=none;fontColor=#FEFAE0;fontSize=10;" parent="zkfFHV4jXpPFQw0GAbJ--0" vertex="1">
          <mxGeometry y="284" width="160" height="24" as="geometry" />
        </mxCell>
        <mxCell id="W-wC5RP210m4lfcZ7cC2-54" value="ssh-connect" style="text;align=left;verticalAlign=top;spacingLeft=4;spacingRight=4;overflow=hidden;rotatable=0;points=[[0,0.5],[1,0.5]];portConstraint=eastwest;labelBackgroundColor=none;fontColor=#FEFAE0;fontSize=10;" vertex="1" parent="zkfFHV4jXpPFQw0GAbJ--0">
          <mxGeometry y="308" width="160" height="24" as="geometry" />
        </mxCell>
        <mxCell id="W-wC5RP210m4lfcZ7cC2-61" value="send-command" style="text;align=left;verticalAlign=top;spacingLeft=4;spacingRight=4;overflow=hidden;rotatable=0;points=[[0,0.5],[1,0.5]];portConstraint=eastwest;labelBackgroundColor=none;fontColor=#FEFAE0;fontSize=10;" vertex="1" parent="zkfFHV4jXpPFQw0GAbJ--0">
          <mxGeometry y="332" width="160" height="24" as="geometry" />
        </mxCell>
        <mxCell id="zkfFHV4jXpPFQw0GAbJ--6" value="Switches" style="swimlane;fontStyle=0;align=center;verticalAlign=top;childLayout=stackLayout;horizontal=1;startSize=26;horizontalStack=0;resizeParent=1;resizeLast=0;collapsible=1;marginBottom=0;rounded=0;shadow=0;strokeWidth=1;labelBackgroundColor=none;fillColor=#BC6C25;strokeColor=#DDA15E;fontColor=#FEFAE0;" parent="WIyWlLk6GJQsqaUBKTNV-1" vertex="1">
          <mxGeometry x="40" y="520" width="160" height="200" as="geometry">
            <mxRectangle x="40" y="40" width="160" height="26" as="alternateBounds" />
          </mxGeometry>
        </mxCell>
        <mxCell id="W-wC5RP210m4lfcZ7cC2-67" value="States [Attributes]" style="text;align=left;verticalAlign=top;spacingLeft=4;spacingRight=4;overflow=hidden;rotatable=0;points=[[0,0.5],[1,0.5]];portConstraint=eastwest;rounded=0;shadow=0;html=0;labelBackgroundColor=none;fillColor=#8F7256;strokeColor=#36393d;" vertex="1" parent="zkfFHV4jXpPFQw0GAbJ--6">
          <mxGeometry y="26" width="160" height="26" as="geometry" />
        </mxCell>
        <mxCell id="W-wC5RP210m4lfcZ7cC2-68" value="Behaviors [Methods]" style="text;align=left;verticalAlign=top;spacingLeft=4;spacingRight=4;overflow=hidden;rotatable=0;points=[[0,0.5],[1,0.5]];portConstraint=eastwest;rounded=0;shadow=0;html=0;labelBackgroundColor=none;fillColor=#8F7256;strokeColor=#36393d;" vertex="1" parent="zkfFHV4jXpPFQw0GAbJ--6">
          <mxGeometry y="52" width="160" height="26" as="geometry" />
        </mxCell>
        <mxCell id="zkfFHV4jXpPFQw0GAbJ--13" value="Routers" style="swimlane;fontStyle=0;align=center;verticalAlign=top;childLayout=stackLayout;horizontal=1;startSize=26;horizontalStack=0;resizeParent=1;resizeLast=0;collapsible=1;marginBottom=0;rounded=0;shadow=0;strokeWidth=1;labelBackgroundColor=none;fillColor=#BC6C25;strokeColor=#DDA15E;fontColor=#FEFAE0;" parent="WIyWlLk6GJQsqaUBKTNV-1" vertex="1">
          <mxGeometry x="240" y="520" width="160" height="200" as="geometry">
            <mxRectangle x="340" y="380" width="170" height="26" as="alternateBounds" />
          </mxGeometry>
        </mxCell>
        <mxCell id="W-wC5RP210m4lfcZ7cC2-69" value="States [Attributes]" style="text;align=left;verticalAlign=top;spacingLeft=4;spacingRight=4;overflow=hidden;rotatable=0;points=[[0,0.5],[1,0.5]];portConstraint=eastwest;rounded=0;shadow=0;html=0;labelBackgroundColor=none;fillColor=#8F7256;strokeColor=#36393d;" vertex="1" parent="zkfFHV4jXpPFQw0GAbJ--13">
          <mxGeometry y="26" width="160" height="26" as="geometry" />
        </mxCell>
        <mxCell id="W-wC5RP210m4lfcZ7cC2-70" value="Behaviors [Methods]" style="text;align=left;verticalAlign=top;spacingLeft=4;spacingRight=4;overflow=hidden;rotatable=0;points=[[0,0.5],[1,0.5]];portConstraint=eastwest;rounded=0;shadow=0;html=0;labelBackgroundColor=none;fillColor=#8F7256;strokeColor=#36393d;" vertex="1" parent="zkfFHV4jXpPFQw0GAbJ--13">
          <mxGeometry y="52" width="160" height="26" as="geometry" />
        </mxCell>
        <mxCell id="zkfFHV4jXpPFQw0GAbJ--17" value="Security Module" style="swimlane;fontStyle=0;align=center;verticalAlign=top;childLayout=stackLayout;horizontal=1;startSize=26;horizontalStack=0;resizeParent=1;resizeLast=0;collapsible=1;marginBottom=0;rounded=0;shadow=0;strokeWidth=1;labelBackgroundColor=none;fillColor=#BC6C25;strokeColor=#DDA15E;fontColor=#FEFAE0;" parent="WIyWlLk6GJQsqaUBKTNV-1" vertex="1">
          <mxGeometry x="600" y="70" width="160" height="100" as="geometry">
            <mxRectangle x="550" y="140" width="160" height="26" as="alternateBounds" />
          </mxGeometry>
        </mxCell>
        <mxCell id="W-wC5RP210m4lfcZ7cC2-32" style="edgeStyle=orthogonalEdgeStyle;rounded=0;orthogonalLoop=1;jettySize=auto;html=1;exitX=0;exitY=0.5;exitDx=0;exitDy=0;strokeColor=#DDA15E;fontColor=#FEFAE0;fillColor=#BC6C25;" edge="1" parent="zkfFHV4jXpPFQw0GAbJ--17">
          <mxGeometry relative="1" as="geometry">
            <mxPoint x="-0.034482758620697496" y="91.31034482758628" as="targetPoint" />
            <mxPoint x="-2.2737367544323206e-13" y="91" as="sourcePoint" />
          </mxGeometry>
        </mxCell>
        <mxCell id="W-wC5RP210m4lfcZ7cC2-44" value="Username" style="text;align=left;verticalAlign=top;spacingLeft=4;spacingRight=4;overflow=hidden;rotatable=0;points=[[0,0.5],[1,0.5]];portConstraint=eastwest;rounded=0;shadow=0;html=0;labelBackgroundColor=none;fontColor=#FEFAE0;fontSize=10;" vertex="1" parent="zkfFHV4jXpPFQw0GAbJ--17">
          <mxGeometry y="26" width="160" height="24" as="geometry" />
        </mxCell>
        <mxCell id="W-wC5RP210m4lfcZ7cC2-45" value="Password" style="text;align=left;verticalAlign=top;spacingLeft=4;spacingRight=4;overflow=hidden;rotatable=0;points=[[0,0.5],[1,0.5]];portConstraint=eastwest;rounded=0;shadow=0;html=0;labelBackgroundColor=none;fontColor=#FEFAE0;fontSize=10;" vertex="1" parent="zkfFHV4jXpPFQw0GAbJ--17">
          <mxGeometry y="50" width="160" height="24" as="geometry" />
        </mxCell>
        <mxCell id="W-wC5RP210m4lfcZ7cC2-46" value="SSH key pair" style="text;align=left;verticalAlign=top;spacingLeft=4;spacingRight=4;overflow=hidden;rotatable=0;points=[[0,0.5],[1,0.5]];portConstraint=eastwest;rounded=0;shadow=0;html=0;labelBackgroundColor=none;fontColor=#FEFAE0;fontSize=10;" vertex="1" parent="zkfFHV4jXpPFQw0GAbJ--17">
          <mxGeometry y="74" width="160" height="24" as="geometry" />
        </mxCell>
        <mxCell id="W-wC5RP210m4lfcZ7cC2-6" value="Firewalls&#xa;" style="swimlane;fontStyle=0;align=center;verticalAlign=top;childLayout=stackLayout;horizontal=1;startSize=26;horizontalStack=0;resizeParent=1;resizeLast=0;collapsible=1;marginBottom=0;rounded=0;shadow=0;strokeWidth=1;labelBackgroundColor=none;fillColor=#BC6C25;strokeColor=#DDA15E;fontColor=#FEFAE0;" vertex="1" parent="WIyWlLk6GJQsqaUBKTNV-1">
          <mxGeometry x="440" y="520" width="160" height="200" as="geometry">
            <mxRectangle x="340" y="380" width="170" height="26" as="alternateBounds" />
          </mxGeometry>
        </mxCell>
        <mxCell id="W-wC5RP210m4lfcZ7cC2-71" value="States [Attributes]" style="text;align=left;verticalAlign=top;spacingLeft=4;spacingRight=4;overflow=hidden;rotatable=0;points=[[0,0.5],[1,0.5]];portConstraint=eastwest;rounded=0;shadow=0;html=0;labelBackgroundColor=none;fillColor=#8F7256;strokeColor=#36393d;" vertex="1" parent="W-wC5RP210m4lfcZ7cC2-6">
          <mxGeometry y="26" width="160" height="26" as="geometry" />
        </mxCell>
        <mxCell id="W-wC5RP210m4lfcZ7cC2-72" value="Behaviors [Methods]" style="text;align=left;verticalAlign=top;spacingLeft=4;spacingRight=4;overflow=hidden;rotatable=0;points=[[0,0.5],[1,0.5]];portConstraint=eastwest;rounded=0;shadow=0;html=0;labelBackgroundColor=none;fillColor=#8F7256;strokeColor=#36393d;" vertex="1" parent="W-wC5RP210m4lfcZ7cC2-6">
          <mxGeometry y="52" width="160" height="26" as="geometry" />
        </mxCell>
        <mxCell id="W-wC5RP210m4lfcZ7cC2-9" value="Endpoints" style="swimlane;fontStyle=0;align=center;verticalAlign=top;childLayout=stackLayout;horizontal=1;startSize=26;horizontalStack=0;resizeParent=1;resizeLast=0;collapsible=1;marginBottom=0;rounded=0;shadow=0;strokeWidth=1;labelBackgroundColor=none;fillColor=#BC6C25;strokeColor=#DDA15E;fontColor=#FEFAE0;" vertex="1" parent="WIyWlLk6GJQsqaUBKTNV-1">
          <mxGeometry x="640" y="520" width="160" height="200" as="geometry">
            <mxRectangle x="340" y="380" width="170" height="26" as="alternateBounds" />
          </mxGeometry>
        </mxCell>
        <mxCell id="W-wC5RP210m4lfcZ7cC2-74" value="States [Attributes]" style="text;align=left;verticalAlign=top;spacingLeft=4;spacingRight=4;overflow=hidden;rotatable=0;points=[[0,0.5],[1,0.5]];portConstraint=eastwest;rounded=0;shadow=0;html=0;labelBackgroundColor=none;fillColor=#8F7256;strokeColor=#36393d;" vertex="1" parent="W-wC5RP210m4lfcZ7cC2-9">
          <mxGeometry y="26" width="160" height="26" as="geometry" />
        </mxCell>
        <mxCell id="W-wC5RP210m4lfcZ7cC2-75" value="Behaviors [Methods]" style="text;align=left;verticalAlign=top;spacingLeft=4;spacingRight=4;overflow=hidden;rotatable=0;points=[[0,0.5],[1,0.5]];portConstraint=eastwest;rounded=0;shadow=0;html=0;labelBackgroundColor=none;fillColor=#8F7256;strokeColor=#36393d;" vertex="1" parent="W-wC5RP210m4lfcZ7cC2-9">
          <mxGeometry y="52" width="160" height="26" as="geometry" />
        </mxCell>
        <mxCell id="W-wC5RP210m4lfcZ7cC2-33" style="edgeStyle=orthogonalEdgeStyle;rounded=0;orthogonalLoop=1;jettySize=auto;html=1;exitX=1;exitY=0.5;exitDx=0;exitDy=0;entryX=1;entryY=0.084;entryDx=0;entryDy=0;entryPerimeter=0;strokeColor=#DDA15E;fontColor=#FEFAE0;fillColor=#BC6C25;" edge="1" parent="WIyWlLk6GJQsqaUBKTNV-1" source="zkfFHV4jXpPFQw0GAbJ--1" target="zkfFHV4jXpPFQw0GAbJ--17">
          <mxGeometry relative="1" as="geometry" />
        </mxCell>
        <mxCell id="W-wC5RP210m4lfcZ7cC2-49" style="edgeStyle=orthogonalEdgeStyle;rounded=0;orthogonalLoop=1;jettySize=auto;html=1;exitX=0;exitY=0.5;exitDx=0;exitDy=0;strokeColor=#DDA15E;fontColor=#FEFAE0;fillColor=#BC6C25;" edge="1" parent="WIyWlLk6GJQsqaUBKTNV-1" source="W-wC5RP210m4lfcZ7cC2-44" target="W-wC5RP210m4lfcZ7cC2-40">
          <mxGeometry relative="1" as="geometry" />
        </mxCell>
        <mxCell id="W-wC5RP210m4lfcZ7cC2-50" style="edgeStyle=orthogonalEdgeStyle;rounded=0;orthogonalLoop=1;jettySize=auto;html=1;exitX=0;exitY=0.5;exitDx=0;exitDy=0;entryX=0.995;entryY=0.701;entryDx=0;entryDy=0;entryPerimeter=0;strokeColor=#DDA15E;fontColor=#FEFAE0;fillColor=#BC6C25;" edge="1" parent="WIyWlLk6GJQsqaUBKTNV-1" source="W-wC5RP210m4lfcZ7cC2-45" target="W-wC5RP210m4lfcZ7cC2-47">
          <mxGeometry relative="1" as="geometry" />
        </mxCell>
        <mxCell id="W-wC5RP210m4lfcZ7cC2-51" style="edgeStyle=orthogonalEdgeStyle;rounded=0;orthogonalLoop=1;jettySize=auto;html=1;exitX=0;exitY=0.5;exitDx=0;exitDy=0;entryX=1;entryY=0.5;entryDx=0;entryDy=0;strokeColor=#DDA15E;fontColor=#FEFAE0;fillColor=#BC6C25;" edge="1" parent="WIyWlLk6GJQsqaUBKTNV-1" source="W-wC5RP210m4lfcZ7cC2-76" target="W-wC5RP210m4lfcZ7cC2-48">
          <mxGeometry relative="1" as="geometry" />
        </mxCell>
        <mxCell id="W-wC5RP210m4lfcZ7cC2-52" value="Init function call to Security Module" style="text;html=1;strokeColor=none;fillColor=none;align=center;verticalAlign=middle;whiteSpace=wrap;rounded=0;fontColor=#FEFAE0;" vertex="1" parent="WIyWlLk6GJQsqaUBKTNV-1">
          <mxGeometry x="530" y="330" width="220" height="30" as="geometry" />
        </mxCell>
        <mxCell id="W-wC5RP210m4lfcZ7cC2-76" value="" style="rounded=0;whiteSpace=wrap;html=1;strokeColor=#DDA15E;fontColor=#FEFAE0;fillColor=#BC6C25;" vertex="1" parent="WIyWlLk6GJQsqaUBKTNV-1">
          <mxGeometry x="520" y="168" width="40" height="50" as="geometry" />
        </mxCell>
        <mxCell id="W-wC5RP210m4lfcZ7cC2-53" value="Return Auth Params" style="text;html=1;strokeColor=none;fillColor=none;align=center;verticalAlign=middle;whiteSpace=wrap;rounded=0;fontColor=#FEFAE0;" vertex="1" parent="WIyWlLk6GJQsqaUBKTNV-1">
          <mxGeometry x="510" y="178" width="60" height="30" as="geometry" />
        </mxCell>
        <mxCell id="W-wC5RP210m4lfcZ7cC2-57" value="SQL Credential Database" style="swimlane;fontStyle=0;align=center;verticalAlign=top;childLayout=stackLayout;horizontal=1;startSize=26;horizontalStack=0;resizeParent=1;resizeLast=0;collapsible=1;marginBottom=0;rounded=0;shadow=0;strokeWidth=1;labelBackgroundColor=none;fillColor=#BC6C25;strokeColor=#DDA15E;fontColor=#FEFAE0;" vertex="1" parent="WIyWlLk6GJQsqaUBKTNV-1">
          <mxGeometry x="827" y="-80" width="160" height="80" as="geometry">
            <mxRectangle x="40" y="40" width="160" height="26" as="alternateBounds" />
          </mxGeometry>
        </mxCell>
        <mxCell id="W-wC5RP210m4lfcZ7cC2-60" value="" style="curved=1;endArrow=classic;html=1;rounded=0;strokeColor=#DDA15E;fontColor=#FEFAE0;fillColor=#BC6C25;exitX=0.5;exitY=0;exitDx=0;exitDy=0;entryX=-0.007;entryY=0.131;entryDx=0;entryDy=0;entryPerimeter=0;" edge="1" parent="WIyWlLk6GJQsqaUBKTNV-1" source="zkfFHV4jXpPFQw0GAbJ--17" target="W-wC5RP210m4lfcZ7cC2-57">
          <mxGeometry width="50" height="50" relative="1" as="geometry">
            <mxPoint x="660" y="50" as="sourcePoint" />
            <mxPoint x="600" y="20" as="targetPoint" />
            <Array as="points">
              <mxPoint x="680" y="20" />
              <mxPoint x="680" y="-30" />
              <mxPoint x="670" y="-70" />
              <mxPoint x="750" y="-70" />
            </Array>
          </mxGeometry>
        </mxCell>
        <mxCell id="W-wC5RP210m4lfcZ7cC2-77" value="" style="edgeStyle=orthogonalEdgeStyle;rounded=0;orthogonalLoop=1;jettySize=auto;html=1;exitX=0;exitY=0.5;exitDx=0;exitDy=0;entryX=1;entryY=0.5;entryDx=0;entryDy=0;strokeColor=#DDA15E;fontColor=#FEFAE0;fillColor=#BC6C25;" edge="1" parent="WIyWlLk6GJQsqaUBKTNV-1" source="W-wC5RP210m4lfcZ7cC2-46" target="W-wC5RP210m4lfcZ7cC2-76">
          <mxGeometry relative="1" as="geometry">
            <mxPoint x="600" y="156" as="sourcePoint" />
            <mxPoint x="480" y="286" as="targetPoint" />
          </mxGeometry>
        </mxCell>
        <mxCell id="W-wC5RP210m4lfcZ7cC2-79" value="" style="rounded=0;whiteSpace=wrap;html=1;strokeColor=#DDA15E;fontColor=#FEFAE0;fillColor=#BC6C25;" vertex="1" parent="WIyWlLk6GJQsqaUBKTNV-1">
          <mxGeometry x="660" y="-80" width="40" height="50" as="geometry" />
        </mxCell>
        <mxCell id="W-wC5RP210m4lfcZ7cC2-80" value="Store &lt;br&gt;Auth Params" style="text;html=1;strokeColor=none;fillColor=none;align=center;verticalAlign=middle;whiteSpace=wrap;rounded=0;fontColor=#FEFAE0;" vertex="1" parent="WIyWlLk6GJQsqaUBKTNV-1">
          <mxGeometry x="650" y="-70" width="60" height="30" as="geometry" />
        </mxCell>
      </root>
    </mxGraphModel>
  </diagram>
</mxfile>
